# xmcd CD database file
#
# Track frame offsets:
#	150
#	2257
#	19566
#	43543
#	62557
#	80529
#	103497
#	129619
#	147842
#	166063
#	192035
#	207122
#	238186
#	260704
#
# Disc length: 3887 seconds
#
# Revision: 8
# Processed by: cddbd v1.5.2PL0 Copyright (c) Steve Scherf et al.
# Submitted via: CDex 1.70beta2
#
DISCID=b60f2d0e
DTITLE=Александр Розенбаум - Транссибирская магистраль
DYEAR=1999
DGENRE=Chanson
TTITLE0=Вступление
TTITLE1=Транссибирская магистраль
TTITLE2=Подари, Господь, мелодию
TTITLE3=Стрелка
TTITLE4=Кантри на завалинке
TTITLE5=Два билета на Манхетен
TTITLE6=Зима
TTITLE7=Утро осеннее
TTITLE8=Братан
TTITLE9=Маруся завязала
TTITLE10=Ночной разговор
TTITLE11=Ты, любовь моя
TTITLE12=Ты  -  не Санкт..., Петербург
TTITLE13=Мотл, Мотэлэ, Матвей (моему папе с нежностью)
EXTD=© 1999 À.Ðîçåíáàóì - È.Ì-À\n(P) 1999 RMG Records - À.Ôðóìèí\nRMG 996-2 CDRDM 918221\n\nÂ çàïèñè ïðèíèìàëè ó÷àñòèå:\nÀëåêñàíäð Ðîçåíáàóì - àêóñòè÷åñêàÿ ãèòàðà\nÍèêîëàé Ðåçàíîâ - ýëåêòðîãèòàðà, àêóñòè÷åñêàÿ ãèòàðà, áàëàëàéêà\nÂèêòîð Ñìèðíîâ - àðàíæèðî
EXTD=âêà, êëàâèøíûå, àêêîðäåîí\nÂèòàëèé Ñìèðíîâ - êëàðíåò\nÒàòüÿíà Êàáàíîâà - âîêàë (10]\nÄóýò "Àíèìà": Àííà Ñòàõîâà, Ìàðèÿ Áîðîíèíà - âîêàë (12) YEAR: 1999
EXTT0=
EXTT1=
EXTT2=
EXTT3=
EXTT4=
EXTT5=
EXTT6=
EXTT7=
EXTT8=
EXTT9=
EXTT10=
EXTT11=
EXTT12=
EXTT13=
PLAYORDER=
